<?xml version="1.0" standalone="no"?>
<!DOCTYPE svg PUBLIC "-//W3C//DTD SVG 20010904//EN"
 "http://www.w3.org/TR/2001/REC-SVG-20010904/DTD/svg10.dtd">
<svg version="1.0" xmlns="http://www.w3.org/2000/svg"
 width="1920.000000pt" height="1080.000000pt" viewBox="0 0 1920.000000 1080.000000"
 preserveAspectRatio="xMidYMid meet">
<metadata>
Created by potrace 1.16, written by Peter Selinger 2001-2019
</metadata>
<g transform="translate(0.000000,1080.000000) scale(0.100000,-0.100000)"
fill="#000000" stroke="none">
<path d="M6883 6683 l-23 -4 0 -880 0 -879 205 0 204 0 3 61 3 62 44 -37 c55
-46 118 -79 195 -101 89 -26 275 -17 376 19 183 65 311 201 377 401 22 67 27
104 31 222 5 170 -10 256 -68 378 -49 104 -107 175 -193 236 -100 70 -197 99
-330 99 -155 0 -274 -38 -384 -121 l-53 -40 0 296 0 295 -182 -1 c-101 -1
-193 -4 -205 -6z m814 -775 c174 -64 259 -312 173 -505 -21 -49 -88 -124 -136
-153 -67 -42 -200 -43 -277 -3 -46 23 -117 93 -139 138 -63 121 -63 269 0 390
21 42 91 113 133 136 60 32 154 31 246 -3z"/>
<path d="M15853 6683 l177 -3 0 -880 c0 -580 3 -880 10 -880 7 0 10 302 10
885 l0 885 -187 -2 -188 -3 178 -2z"/>
<path d="M1875 6313 c-339 -391 -428 -787 -266 -1182 85 -204 259 -415 467
-562 203 -145 1106 -635 1153 -627 34 6 1341 483 1341 490 0 7 -151 96 -171
100 -7 2 -54 27 -104 57 -157 94 -374 215 -555 311 -96 51 -180 98 -185 105
-12 14 -493 257 -722 364 -345 161 -563 317 -706 503 -113 148 -174 316 -165
455 3 40 1 73 -3 73 -4 0 -42 -39 -84 -87z"/>
<path d="M9045 6258 c-49 -4 -135 -19 -190 -33 -107 -28 -295 -103 -295 -118
0 -16 121 -247 130 -247 4 0 54 19 111 42 100 41 108 43 214 43 94 0 117 -3
160 -23 60 -28 91 -55 115 -102 19 -37 37 -110 27 -110 -3 0 -45 9 -94 21 -74
18 -110 20 -223 17 -118 -4 -145 -9 -217 -35 -157 -57 -244 -127 -300 -242
-25 -51 -28 -66 -28 -166 0 -105 2 -114 33 -177 39 -80 108 -146 196 -187 90
-43 156 -54 282 -49 125 6 208 28 297 82 l57 35 0 -45 0 -44 201 0 200 0 -3
463 c-4 446 -4 464 -25 520 -37 96 -73 154 -134 213 -121 115 -286 161 -514
142z m213 -793 l62 -18 0 -58 c0 -32 -5 -70 -11 -86 -14 -38 -66 -91 -114
-115 -49 -26 -154 -35 -215 -18 -58 16 -130 85 -131 126 -3 83 20 130 84 169
40 25 48 26 152 22 64 -2 136 -11 173 -22z"/>
<path d="M16900 6263 c-142 -8 -293 -47 -438 -114 l-83 -38 62 -123 c34 -68
63 -125 65 -127 2 -2 30 7 61 21 122 54 162 63 278 62 119 0 156 -10 215 -61
36 -30 80 -114 80 -154 l0 -25 -87 22 c-67 17 -117 23 -208 23 -143 1 -206
-13 -322 -69 -157 -77 -242 -196 -251 -350 -15 -259 183 -440 481 -440 145 0
258 34 355 107 l32 24 0 -50 0 -51 196 0 195 0 -3 463 c-4 446 -4 464 -25 520
-37 96 -73 154 -134 213 -111 105 -276 157 -469 147z m120 -784 c25 -5 62 -14
83 -20 l37 -10 0 -67 c0 -93 -34 -148 -114 -187 -67 -33 -168 -43 -236 -25
-58 16 -130 85 -131 126 -4 97 36 159 120 184 38 12 189 11 241 -1z"/>
<path d="M10810 6250 c127 -8 216 -36 300 -91 117 -79 202 -200 252 -359 20
-65 23 -96 23 -225 0 -174 -13 -234 -76 -364 -47 -95 -145 -203 -217 -240 -24
-12 -41 -25 -38 -28 10 -11 118 62 175 117 69 69 123 159 158 265 22 67 27
104 31 222 5 170 -10 256 -68 378 -72 155 -191 262 -342 310 -67 21 -97 25
-191 23 l-112 -1 105 -7z"/>
<path d="M12270 6250 c159 -10 224 -30 330 -101 112 -75 189 -183 239 -334 18
-54 37 -136 42 -184 6 -47 13 -105 15 -128 4 -31 10 -43 21 -43 14 0 15 13 9
101 -19 272 -122 486 -291 600 -110 75 -173 92 -345 95 l-145 2 125 -8z"/>
<path d="M13917 6250 c99 -6 119 -11 186 -43 122 -58 200 -143 249 -273 22
-57 22 -72 26 -531 3 -412 5 -473 18 -473 13 0 15 58 12 478 -4 464 -4 479
-26 536 -30 79 -73 144 -131 199 -92 86 -185 118 -340 115 l-106 -1 112 -7z"/>
<path d="M10003 6233 l-23 -4 0 -875 0 -874 65 0 66 0 -6 223 c-13 457 -33
1512 -29 1516 2 2 6 2 8 0 2 -2 12 -393 22 -869 9 -476 18 -867 20 -869 2 -2
6 -2 8 0 2 2 -5 378 -15 834 -10 457 -18 847 -18 868 l-1 37 130 0 130 0 0
-87 c1 -80 2 -86 15 -69 10 14 15 45 15 98 l0 78 -182 -1 c-101 -1 -193 -4
-205 -6z"/>
<path d="M4031 5892 c11 -43 25 -117 31 -164 l13 -85 260 -450 259 -450 29 35
c62 79 117 233 117 333 0 160 -93 354 -242 501 -27 26 -82 75 -124 109 -79 64
-341 249 -354 249 -4 0 1 -35 11 -78z"/>
<path d="M10529 5900 c-48 -25 -115 -100 -142 -158 -18 -40 -21 -66 -22 -167
0 -111 2 -125 28 -181 34 -74 94 -135 161 -165 59 -26 157 -35 206 -20 l35 11
-40 -4 c-50 -4 -141 11 -178 31 -46 23 -117 93 -139 138 -63 121 -63 270 0
390 20 40 75 97 122 129 33 22 14 20 -31 -4z"/>
<path d="M13614 5888 c-33 -23 -57 -50 -76 -87 l-28 -53 0 -409 c0 -246 4
-409 9 -409 6 0 11 165 13 408 3 444 3 439 64 511 15 19 42 42 59 52 16 11 25
19 19 19 -7 0 -33 -15 -60 -32z"/>
<path d="M15084 5837 c-72 -76 -97 -143 -97 -267 0 -116 24 -186 87 -257 74
-82 199 -126 302 -106 l49 9 -71 1 c-96 0 -165 26 -230 86 -91 82 -131 203
-112 338 11 83 37 139 94 199 26 27 43 50 38 50 -4 0 -31 -24 -60 -53z"/>
<path d="M11621 5843 c-19 -57 -8 -518 14 -567 12 -28 13 -10 13 159 0 105 -3
249 -7 320 -6 129 -6 130 -20 88z"/>
<path d="M12576 5332 c-3 -5 46 -60 109 -122 l115 -114 -23 -25 c-12 -13 -49
-41 -82 -62 -76 -49 -60 -51 20 -3 65 39 115 82 115 99 0 14 -222 235 -237
235 -7 0 -14 -4 -17 -8z"/>
<path d="M10360 4791 c0 -261 2 -301 15 -301 13 0 15 39 15 289 0 244 -2 290
-15 301 -13 11 -15 -22 -15 -289z"/>
<path d="M6921 4198 c-60 -32 -87 -124 -48 -162 9 -10 17 -24 17 -32 0 -8 6
-14 14 -14 7 0 19 -7 26 -15 12 -15 74 -15 112 0 44 17 65 126 32 160 -7 7
-11 15 -9 17 3 3 -6 15 -19 27 -29 27 -92 37 -125 19z"/>
<path d="M8752 3293 l3 -908 5 890 c4 656 6 799 10 544 l5 -345 33 8 c17 5 32
13 32 18 0 5 -8 7 -17 4 -15 -5 -15 -4 1 6 14 10 20 10 26 0 5 -8 10 -9 14 -1
5 7 15 7 32 0 25 -9 26 -8 19 18 -7 31 -22 44 -40 36 -7 -2 -14 7 -17 21 -4
20 -1 25 16 24 12 0 27 0 34 1 9 1 12 67 12 296 l0 295 -85 0 -85 0 2 -907z"/>
<path d="M1835 4045 c-183 -231 -284 -473 -302 -714 -5 -79 -4 -93 8 -89 8 3
145 53 304 111 160 58 303 110 319 116 l28 11 -65 69 c-106 113 -179 231 -212
344 -17 59 -23 168 -10 206 12 39 -10 22 -70 -54z"/>
<path d="M12460 3910 l0 -180 -110 0 -110 0 0 -77 c0 -43 4 -84 9 -91 6 -10
34 -13 112 -10 l104 3 0 -475 c-1 -292 1 -396 5 -270 4 161 9 212 22 240 17
36 64 87 76 83 4 -2 7 0 8 5 2 14 18 47 36 74 16 23 18 47 18 181 0 86 4 158
8 161 5 3 47 6 95 7 48 1 84 5 82 10 -3 4 -1 10 5 14 5 3 10 22 10 42 0 20 7
44 15 54 15 16 9 17 -97 18 -62 1 -114 4 -117 7 -2 2 71 4 162 4 110 0 167 4
167 10 0 7 -55 10 -165 8 l-165 -3 0 183 0 182 -85 0 -85 0 0 -180z"/>
<path d="M7775 3750 c-104 -16 -355 -104 -355 -124 0 -19 76 -156 85 -152 205
92 267 110 385 110 158 1 267 -56 326 -171 18 -34 34 -60 36 -58 1 2 5 -42 6
-97 4 -93 3 -100 -15 -94 -219 68 -491 85 -623 38 -135 -48 -235 -129 -285
-229 -101 -208 -13 -477 189 -576 214 -105 515 -63 683 95 l53 51 0 -71 c0
-104 -2 -102 97 -102 l84 0 -2 125 c-2 99 -5 125 -16 121 -7 -3 -17 4 -23 14
-8 15 -8 20 3 20 7 0 17 -4 23 -10 6 -6 10 19 11 70 1 76 -2 85 -29 81 -5 0
-8 2 -9 7 0 4 -2 15 -4 26 -3 14 1 17 20 14 21 -4 22 -3 14 26 -5 17 -9 32 -9
33 0 1 -6 0 -13 -3 -26 -10 -39 20 -22 52 20 39 19 61 -5 74 -29 16 -17 27 25
24 33 -3 35 -2 23 13 -7 9 -12 18 -10 20 1 1 -1 3 -5 3 -5 0 -8 -4 -8 -9 0 -5
-3 -13 -7 -17 -5 -4 -8 -2 -8 4 0 7 -7 12 -15 12 -8 0 -15 5 -15 11 0 5 -5 7
-12 3 -7 -4 -8 -3 -4 4 4 7 15 12 25 12 26 0 33 11 17 29 -8 9 -16 25 -18 36
-2 11 -10 19 -17 17 -7 -1 -11 3 -9 10 6 18 39 23 48 8 6 -10 12 -10 26 0 15
9 15 10 2 6 -9 -2 -22 2 -28 10 -7 8 -9 14 -4 14 4 0 -1 6 -11 14 -11 8 -23
12 -27 10 -5 -3 -8 -2 -9 3 0 4 -2 19 -4 33 -3 24 -1 25 41 21 29 -2 44 1 44
9 0 6 -5 8 -10 5 -14 -9 -42 14 -33 28 3 6 1 7 -5 3 -7 -4 -12 -2 -12 3 0 6 5
11 12 11 6 0 8 3 5 6 -4 4 -13 1 -22 -6 -21 -17 -29 -7 -15 19 6 12 20 21 31
21 13 0 18 -4 13 -12 -5 -9 -4 -10 4 -3 15 13 4 55 -14 55 -8 0 -14 5 -14 11
0 6 7 8 16 5 11 -4 8 7 -12 44 -15 27 -31 47 -36 44 -5 -3 -7 -1 -6 4 11 37
-127 140 -231 172 -77 24 -227 33 -316 20z m303 -707 c51 -8 112 -20 135 -27
l42 -12 3 -107 c2 -96 0 -111 -22 -154 -92 -183 -379 -282 -587 -204 -255 96
-235 395 33 496 95 36 212 38 396 8z"/>
<path d="M10465 3750 c-117 -18 -355 -105 -355 -130 0 -5 4 -10 8 -10 5 0 22
-30 37 -67 16 -38 30 -70 31 -72 2 -2 37 13 79 33 225 107 441 108 571 5 42
-33 96 -108 88 -121 -3 -4 -1 -8 3 -8 5 0 9 -8 10 -17 0 -10 7 -57 14 -105 7
-48 10 -90 7 -93 -3 -3 -48 5 -99 19 -265 69 -482 61 -646 -22 -113 -58 -203
-183 -224 -311 -11 -72 -3 -182 13 -160 6 9 7 2 3 -20 -6 -26 -4 -32 6 -26 9
6 11 3 6 -8 -4 -10 -2 -17 4 -17 6 0 8 -8 5 -17 -4 -10 -4 -14 0 -10 4 4 17
-15 30 -42 42 -88 147 -164 271 -196 70 -18 132 -19 137 -2 2 6 8 27 14 45 6
17 6 30 1 26 -5 -3 -9 0 -9 5 0 6 4 11 8 11 5 0 14 10 21 23 6 12 22 22 34 23
143 7 310 87 382 185 6 8 21 37 33 66 19 44 22 68 20 165 l-1 113 -6 -110 c-5
-88 -11 -120 -30 -158 -91 -187 -380 -287 -593 -208 -31 12 -62 28 -68 36 -18
21 -35 19 -19 -2 7 -10 -1 -5 -19 11 -34 32 -44 48 -14 25 10 -8 7 -4 -6 9
-13 12 -19 22 -15 22 4 0 2 4 -5 9 -7 4 -14 14 -15 22 -2 8 -6 19 -9 25 -4 5
-6 42 -5 80 4 114 58 187 183 246 78 36 169 47 319 38 85 -6 124 -4 134 4 12
8 13 8 7 -1 -4 -7 -4 -13 1 -13 4 0 19 23 32 51 23 49 25 50 60 46 20 -3 44
-8 55 -12 17 -8 18 -3 13 76 -3 46 -7 94 -10 106 -3 13 -2 25 4 28 5 4 9 2 9
-4 0 -20 32 -3 75 39 25 24 45 38 45 30 0 -7 3 -11 6 -7 3 3 -11 41 -31 83
-62 128 -155 206 -295 248 -67 20 -223 28 -305 16z"/>
<path d="M12012 3745 c-136 -25 -268 -105 -344 -209 l-28 -39 0 101 c0 55 -3
107 -6 116 -5 13 -23 16 -90 16 l-84 0 2 -672 3 -673 5 660 5 660 75 1 75 0
-72 -3 -73 -4 0 -391 0 -392 30 29 c17 16 30 25 30 20 0 -5 19 10 43 33 35 35
44 50 46 84 16 282 170 455 446 502 l70 12 3 66 c2 66 2 67 -25 71 l-28 4 28
2 c15 0 27 6 27 11 0 13 -48 11 -138 -5z"/>
<path d="M13635 3750 c-77 -12 -203 -51 -288 -90 -62 -28 -80 -44 -58 -52 5
-1 23 -31 40 -65 17 -35 34 -63 36 -63 3 0 31 13 63 29 120 60 187 76 312 75
136 0 200 -20 273 -85 63 -55 95 -125 109 -237 7 -50 9 -94 6 -97 -3 -4 -39 3
-80 14 -258 72 -498 67 -656 -13 -162 -82 -262 -268 -234 -436 l10 -55 1 88
c1 87 26 187 52 211 9 8 10 7 4 -4 -6 -10 -1 -8 13 4 25 21 31 36 7 16 -12
-10 -15 -10 -15 0 0 25 116 126 182 158 95 46 258 79 258 51 0 -5 5 -7 10 -4
6 3 10 2 10 -4 0 -5 9 -8 21 -6 18 4 19 2 8 -11 -10 -13 -8 -14 15 -10 20 4
25 2 18 -7 -15 -20 -23 -49 -11 -41 7 4 9 -3 7 -17 -3 -23 1 -25 132 -45 74
-12 161 -29 194 -38 l58 -17 -4 -107 c-3 -87 -8 -115 -27 -151 -30 -57 -103
-128 -168 -164 -66 -35 -190 -67 -262 -67 -112 0 -239 52 -291 118 -12 16 -17
19 -11 7 17 -36 75 -83 135 -111 90 -41 241 -45 351 -9 11 4 16 3 10 -2 -14
-12 -20 -87 -6 -79 6 4 11 3 11 -3 0 -5 -4 -13 -10 -16 -5 -3 -10 -15 -10 -25
0 -16 4 -17 30 -10 56 16 154 75 202 122 l48 47 0 -74 c0 -107 -2 -105 97
-105 l85 0 -5 468 c-3 404 -6 475 -21 526 -58 197 -170 317 -346 370 -67 20
-223 28 -305 16z"/>
<path d="M6888 2973 l-3 -758 -23 -43 c-32 -59 -72 -82 -147 -82 -56 0 -110 9
-146 24 -12 6 -18 -5 -27 -57 -16 -85 -16 -92 2 -78 8 7 12 21 8 34 -3 12 -1
19 3 15 5 -4 14 -3 21 3 19 16 12 -16 -9 -39 -25 -27 -21 -38 6 -16 21 18 21
18 -1 -8 l-24 -26 77 -17 c158 -35 288 -1 365 97 71 89 70 79 70 762 l0 611
-27 -35 c-15 -19 -50 -59 -77 -87 -27 -29 -44 -53 -38 -53 12 0 7 -39 -7 -53
-6 -6 -10 49 -10 149 l-1 158 67 69 c38 39 61 66 53 62 -10 -6 -8 -1 4 13 23
26 23 26 23 7 0 -8 -5 -11 -11 -8 -6 4 -5 0 2 -9 10 -13 9 -20 -11 -44 -106
-131 -112 -147 -24 -65 25 24 37 30 37 20 0 -9 -9 -24 -20 -34 -11 -10 -20
-22 -20 -27 0 -5 -17 -31 -37 -56 -33 -42 -30 -40 30 18 l67 64 -1 106 c-2
149 4 140 -89 140 l-79 0 -3 -757z"/>
<path d="M9303 3351 c-212 -216 -373 -387 -373 -397 0 -11 151 135 381 369
l381 387 99 0 c59 0 99 4 99 10 0 6 -42 10 -107 10 l-108 -1 -372 -378z"/>
<path d="M4307 3228 c-8 -146 -54 -282 -120 -355 -11 -13 -17 -23 -13 -23 4 0
0 -7 -8 -16 -17 -17 -12 -39 6 -28 8 5 9 1 5 -10 -5 -11 -3 -15 5 -10 8 5 9 2
5 -9 -4 -10 -2 -16 5 -14 6 1 13 -4 16 -12 3 -9 0 -11 -8 -6 -9 5 -11 4 -6 -4
4 -6 12 -8 18 -5 8 5 9 1 5 -10 -5 -11 -3 -15 5 -10 8 5 9 2 5 -9 -4 -10 -2
-16 5 -14 6 1 13 -4 16 -12 3 -9 0 -11 -8 -6 -9 5 -11 4 -6 -4 4 -6 12 -8 18
-5 8 5 9 1 5 -10 -5 -11 -3 -15 5 -10 8 5 9 2 5 -9 -4 -10 -2 -16 6 -14 7 1
11 -6 11 -15 -1 -10 3 -15 9 -11 6 4 8 0 4 -10 -4 -10 -2 -16 5 -14 6 1 13 -4
16 -12 3 -9 0 -11 -8 -6 -9 5 -11 4 -6 -4 4 -6 12 -8 18 -5 8 5 9 1 5 -10 -5
-11 -3 -15 5 -10 8 5 9 2 5 -9 -4 -10 -2 -16 5 -14 6 1 13 -4 16 -12 3 -9 0
-11 -8 -6 -9 5 -11 4 -6 -4 4 -6 12 -8 18 -5 8 5 9 1 5 -10 -5 -11 -3 -15 5
-10 8 5 9 2 5 -9 -4 -10 -2 -16 5 -14 6 1 13 -4 16 -12 3 -9 0 -11 -8 -6 -9 5
-11 4 -6 -4 4 -6 12 -8 18 -5 7 5 9 1 5 -9 -3 -9 -3 -16 1 -16 4 1 9 0 12 -1
43 -16 233 -41 366 -47 l141 -6 20 29 c65 92 80 176 51 274 -11 36 -29 81 -41
100 -64 107 -242 291 -412 426 -55 43 -105 84 -111 89 -6 6 -22 17 -34 25 -13
8 -35 25 -50 38 -15 12 -30 22 -33 22 -2 0 -7 -46 -10 -102z"/>
</g>
</svg>
