<?xml version="1.0" standalone="no"?>
<!DOCTYPE svg PUBLIC "-//W3C//DTD SVG 20010904//EN"
 "http://www.w3.org/TR/2001/REC-SVG-20010904/DTD/svg10.dtd">
<svg version="1.0" xmlns="http://www.w3.org/2000/svg"
 width="952.000000pt" height="481.000000pt" viewBox="0 0 952.000000 481.000000"
 preserveAspectRatio="xMidYMid meet">
<metadata>
Created by potrace 1.16, written by Peter Selinger 2001-2019
</metadata>
<g transform="translate(0.000000,481.000000) scale(0.100000,-0.100000)"
fill="#000000" stroke="none">
<path d="M1670 4602 c0 -46 -4 -63 -20 -77 -31 -28 -45 -85 -30 -129 6 -20 20
-42 31 -50 18 -12 19 -24 17 -111 l-3 -98 -131 -3 c-162 -5 -283 -33 -410 -97
-114 -57 -190 -115 -292 -221 -171 -179 -280 -397 -334 -671 -28 -142 -30
-383 -4 -524 91 -497 407 -875 824 -982 50 -13 128 -22 225 -26 l147 -6 0
-314 0 -313 -30 0 -30 0 0 -150 0 -150 30 0 30 0 0 -90 0 -90 1420 0 1420 0 0
553 0 553 118 12 c135 12 224 37 337 94 307 153 534 472 621 869 27 121 27
467 0 589 -22 104 -77 263 -118 344 -82 164 -213 325 -347 427 -81 61 -244
142 -329 164 -53 13 -217 33 -284 35 -17 0 -18 19 -18 260 l0 260 -1420 0
-1420 0 0 -58z m3110 -558 c221 -61 407 -191 555 -389 62 -82 159 -281 189
-387 191 -669 -137 -1387 -708 -1553 l-90 -25 -1670 -1 -1671 0 -88 25 c-161
48 -287 124 -412 250 -358 360 -459 961 -246 1455 149 347 445 595 766 640 33
5 789 8 1680 7 1604 -1 1621 -2 1695 -22z m-2058 -2819 c3 -128 2 -134 -17
-139 -11 -3 -31 -3 -43 1 -21 5 -22 9 -22 139 l0 134 39 0 40 0 3 -135z m136
124 c-28 -16 -22 -33 32 -100 74 -92 77 -127 15 -158 -22 -10 -36 -11 -63 -3
-26 8 -39 8 -49 0 -10 -8 -13 2 -12 53 l0 64 15 -40 c16 -45 48 -77 69 -68 27
10 15 50 -35 119 -57 77 -62 110 -20 131 14 7 34 13 45 13 18 -1 19 -1 3 -11z
m437 -9 c12 -10 15 -39 15 -127 0 -105 1 -115 18 -109 14 5 14 4 -2 -9 -25
-19 -56 -19 -82 0 -12 8 -24 11 -28 7 -4 -3 -3 6 3 20 17 45 12 200 -7 222
-16 18 -16 19 26 13 23 -3 49 -11 57 -17z"/>
<path d="M1630 3914 c-147 -16 -226 -30 -295 -51 -195 -61 -313 -157 -389
-316 -43 -89 -75 -191 -64 -202 2 -3 58 -12 124 -20 65 -8 133 -17 150 -20 29
-5 31 -4 58 67 33 84 85 167 127 202 73 62 272 97 438 77 256 -32 354 -133
356 -370 l0 -104 -45 -13 c-87 -27 -277 -63 -440 -84 -256 -33 -348 -50 -437
-82 -239 -86 -379 -261 -391 -488 -6 -116 8 -188 54 -279 67 -134 189 -225
359 -268 107 -27 363 -24 470 6 108 29 263 107 360 180 44 34 83 61 86 61 3 0
10 -26 16 -57 6 -32 21 -84 33 -115 l21 -58 161 0 c149 0 160 1 153 18 -47
107 -67 186 -75 287 -8 107 -5 143 7 97 10 -41 71 -161 111 -219 100 -147 230
-227 447 -275 82 -18 145 -21 745 -28 683 -9 809 -5 956 30 215 51 353 166
459 385 44 93 112 282 103 291 -3 2 -73 2 -156 -2 l-150 -7 -12 -64 c-25 -146
-89 -242 -195 -293 -123 -59 -497 -84 -1167 -77 -405 4 -439 5 -518 26 -102
26 -152 54 -209 116 -81 88 -118 198 -142 420 -33 306 45 639 183 782 41 42
106 69 214 88 76 14 186 16 744 15 380 0 682 -5 720 -11 140 -21 254 -109 330
-254 34 -65 36 -66 70 -61 19 3 83 8 143 12 59 4 110 10 113 15 9 15 -55 163
-107 247 -89 146 -212 259 -322 298 -58 21 -261 52 -387 60 -125 8 -1061 -12
-1240 -27 -173 -14 -312 -44 -385 -82 -77 -41 -211 -173 -255 -252 -18 -33
-50 -105 -71 -159 l-37 -99 -6 99 c-20 294 -98 413 -331 501 -44 17 -111 36
-150 42 -78 12 -281 21 -335 15z m508 -1136 c-6 -171 -27 -252 -88 -348 -115
-179 -374 -279 -620 -240 -210 34 -321 198 -264 391 12 41 28 66 69 106 64 62
118 81 316 113 207 33 426 79 499 104 101 36 94 47 88 -126z"/>
<path d="M5080 3131 c-19 -10 -48 -36 -64 -59 -51 -72 -48 -222 7 -303 30 -45
71 -64 137 -64 67 1 110 27 140 85 26 51 25 60 -4 60 -17 0 -27 -9 -36 -30
-19 -46 -56 -70 -105 -70 -85 0 -132 76 -123 200 8 103 49 153 129 153 42 0
83 -28 95 -65 6 -20 54 -26 54 -5 0 23 -40 77 -72 97 -42 25 -112 26 -158 1z"/>
<path d="M3965 3128 c-3 -7 -36 -104 -74 -215 l-68 -203 27 0 c25 0 29 5 46
65 l19 65 85 0 86 0 20 -62 c17 -55 23 -63 47 -66 15 -2 27 0 27 3 0 4 -34
101 -76 216 -76 206 -77 209 -106 209 -16 0 -31 -6 -33 -12z"/>
<path d="M4230 2924 l0 -216 109 4 c91 3 115 7 137 24 46 34 68 90 73 177 4
95 -15 152 -65 197 -34 30 -36 30 -144 30 l-110 0 0 -216z m217 150 c35 -23
53 -73 53 -151 0 -77 -22 -130 -61 -150 -13 -7 -54 -13 -91 -13 l-68 0 0 163
c0 90 3 167 8 171 12 13 133 -2 159 -20z"/>
<path d="M4630 2925 l0 -215 145 0 145 0 0 25 0 25 -120 0 -120 0 0 75 0 75
105 0 105 0 0 25 0 25 -105 0 -105 0 0 70 0 70 115 0 c108 0 115 1 115 20 0
19 -7 20 -140 20 l-140 0 0 -215z"/>
<path d="M1235 4439 c-3 -9 -18 -16 -36 -17 -17 0 -37 -6 -44 -12 -37 -31 -24
-123 22 -160 33 -25 58 -25 83 0 27 27 30 26 30 -14 0 -44 -20 -60 -65 -52
-42 8 -48 -9 -9 -24 33 -13 73 5 93 42 14 25 13 33 -13 115 -36 112 -52 144
-61 122z"/>
<path d="M760 4259 c-36 -27 -66 -54 -68 -58 -2 -5 28 -56 66 -115 l69 -106
69 51 c38 29 71 54 73 56 3 2 0 8 -6 14 -6 6 -28 -5 -68 -36 l-58 -45 -24 35
c-12 18 -23 38 -23 42 0 5 23 26 50 47 48 37 62 56 39 56 -5 0 -31 -16 -56
-35 -25 -19 -49 -35 -53 -35 -11 0 -40 46 -40 62 0 7 25 30 54 52 34 24 52 44
49 52 -3 8 -6 14 -7 14 0 0 -30 -23 -66 -51z"/>
<path d="M484 3981 c-39 -24 -58 -69 -51 -124 4 -32 15 -51 46 -79 50 -47 83
-56 127 -34 97 46 94 165 -6 234 -40 27 -75 28 -116 3z m127 -50 c32 -32 39
-46 39 -77 -1 -89 -91 -122 -152 -56 -56 59 -59 114 -11 152 41 32 79 26 124
-19z"/>
<path d="M321 3753 c-8 -16 3 -34 65 -107 41 -49 73 -91 71 -93 -3 -2 -46 5
-98 17 -114 25 -116 25 -128 1 -9 -17 2 -26 99 -84 59 -36 111 -63 114 -59 14
13 2 24 -74 68 -71 40 -102 64 -86 64 3 0 49 -10 102 -21 131 -29 135 -22 44
86 -39 48 -70 88 -69 90 2 2 41 -20 87 -48 58 -35 86 -47 93 -40 8 8 -16 26
-78 64 -48 29 -98 59 -110 66 -19 13 -23 12 -32 -4z"/>
<path d="M185 3428 c-27 -84 -44 -153 -38 -159 9 -7 209 -79 222 -79 4 0 18
33 30 74 11 41 24 82 27 90 4 10 1 16 -8 16 -10 0 -22 -24 -35 -67 -19 -67
-20 -68 -52 -66 -51 2 -57 14 -38 83 20 69 21 80 7 80 -5 0 -19 -31 -30 -69
l-21 -69 -32 10 c-18 6 -35 13 -39 17 -3 3 2 33 13 66 21 69 23 85 9 85 -6 0
-12 -6 -15 -12z"/>
<path d="M159 3125 c-32 -17 -46 -51 -52 -127 -6 -68 -14 -64 134 -73 l107 -7
7 60 c9 78 -11 127 -59 147 -44 19 -103 19 -137 0z m130 -30 c35 -17 41 -32
41 -96 l0 -50 -87 6 c-49 4 -94 8 -100 10 -30 10 -6 116 30 133 32 15 84 14
116 -3z"/>
<path d="M225 2715 c-132 -96 -132 -104 5 -127 58 -9 117 -19 133 -22 19 -4
27 -1 27 8 0 16 -21 26 -56 26 -26 0 -36 17 -48 82 -6 33 -4 38 29 58 34 21
48 51 23 49 -7 0 -58 -33 -113 -74z"/>
<path d="M265 2477 c-116 -47 -112 -44 -98 -58 7 -7 23 -5 52 7 24 9 46 13 50
8 13 -16 43 -113 37 -122 -3 -5 -23 -14 -45 -22 -23 -7 -41 -19 -41 -27 0 -7
4 -13 10 -13 15 0 214 80 224 90 20 20 -23 20 -68 1 -35 -15 -48 -17 -51 -8
-2 6 -13 36 -24 65 l-20 54 55 24 c53 23 71 45 37 43 -10 0 -63 -19 -118 -42z"/>
<path d="M562 2062 c-6 -20 -13 -52 -17 -69 -7 -37 -8 -37 -35 -23 -46 25
-105 -44 -79 -92 18 -34 83 -117 92 -118 4 0 48 39 98 87 61 59 86 90 79 97
-7 7 -23 -2 -51 -29 l-40 -40 -21 25 c-21 25 -21 37 -2 151 8 49 -10 58 -24
11z"/>
<path d="M722 1879 c-107 -294 -107 -293 46 -207 59 33 111 64 116 69 21 19
-6 21 -44 4 l-41 -19 -36 37 c-36 35 -36 36 -24 78 9 29 9 45 2 52 -7 7 -13 3
-19 -14z"/>
<path d="M9417 1802 c-45 -36 -99 -55 -221 -77 -100 -18 -186 -57 -246 -112
-47 -41 -143 -181 -134 -194 11 -19 52 -7 124 36 105 64 170 86 273 92 l88 6
52 52 c68 68 109 143 105 191 l-3 36 -38 -30z"/>
<path d="M1354 1477 c-16 -76 -19 -78 -65 -62 -57 21 -76 19 -104 -10 -30 -29
-33 -74 -7 -103 15 -18 130 -67 138 -60 1 2 17 53 34 113 16 61 33 117 35 126
3 9 -1 19 -9 22 -10 4 -17 -4 -22 -26z"/>
<path d="M6671 1446 c-31 -17 -50 -53 -51 -93 0 -23 -6 -33 -20 -38 -26 -8
-25 -21 1 -28 21 -6 22 -10 16 -93 -4 -69 -9 -91 -23 -101 -15 -11 -9 -13 47
-12 53 0 60 2 42 11 -21 10 -23 17 -23 105 0 93 0 93 25 93 14 0 25 4 25 10 0
5 -11 12 -25 16 -21 5 -25 12 -25 46 0 77 39 102 80 51 23 -30 47 -20 36 15
-10 32 -64 41 -105 18z"/>
<path d="M9059 1418 c-122 -64 -188 -180 -196 -348 -11 -196 54 -341 181 -408
44 -23 63 -27 141 -27 101 0 151 19 198 74 30 37 61 112 54 137 -4 18 -4 18
-11 -1 -35 -99 -83 -144 -162 -153 -65 -7 -125 20 -179 80 -58 64 -85 148 -92
281 l-6 97 223 0 223 0 -7 53 c-25 199 -200 301 -367 215z m193 -37 c35 -37
48 -70 63 -153 l6 -38 -161 0 -160 0 0 24 c0 13 7 43 15 67 52 146 154 189
237 100z"/>
<path d="M8337 1373 c-4 -12 -21 -33 -38 -47 -34 -29 -36 -36 -9 -36 19 0 20
-7 20 -90 0 -77 3 -93 20 -110 24 -24 32 -25 70 -5 36 18 41 39 7 26 -45 -18
-57 1 -57 94 l0 84 35 3 c46 4 46 22 1 26 -32 3 -35 6 -38 40 -3 32 -4 34 -11
15z"/>
<path d="M4676 1311 c-3 -5 3 -11 14 -14 18 -5 20 -14 20 -90 0 -63 -4 -90
-15 -101 -23 -23 -19 -26 35 -26 28 0 50 5 50 10 0 6 -7 10 -15 10 -12 0 -15
13 -14 63 1 84 10 110 43 126 25 11 30 11 45 -3 25 -26 22 -171 -5 -191 -17
-13 -13 -14 41 -14 46 0 56 2 43 10 -28 16 -26 161 2 189 23 23 50 26 68 8 7
-7 12 -44 12 -96 0 -69 -3 -87 -17 -98 -16 -12 -11 -13 36 -14 48 0 52 2 40
16 -9 11 -14 45 -14 99 0 67 -4 87 -19 104 -22 25 -56 27 -96 6 -26 -13 -32
-13 -59 2 -31 18 -32 18 -103 -12 -13 -5 -18 -2 -18 9 0 12 -9 16 -34 16 -19
0 -37 -4 -40 -9z"/>
<path d="M5113 1302 c14 -16 17 -43 17 -168 0 -151 -3 -167 -30 -176 -8 -3 11
-7 43 -9 55 -4 73 3 42 15 -11 4 -15 21 -15 64 l0 59 50 -5 c46 -4 52 -2 85
31 29 29 35 42 35 76 0 48 -21 96 -49 111 -29 15 -72 12 -93 -7 -18 -16 -19
-16 -25 5 -4 17 -13 22 -41 22 -33 0 -34 -1 -19 -18z m164 -39 c25 -37 24
-114 -1 -142 -25 -28 -81 -29 -96 -2 -21 40 -7 144 23 163 25 16 57 8 74 -19z"/>
<path d="M5415 1297 c-18 -15 -24 -28 -19 -40 9 -24 26 -17 42 17 11 21 20 26
40 24 24 -3 27 -8 27 -38 0 -32 -4 -36 -44 -51 -56 -20 -85 -54 -76 -88 4 -14
12 -29 18 -33 18 -11 66 -9 90 3 16 9 22 9 25 0 5 -14 72 -15 72 -1 0 6 -6 10
-14 10 -19 0 -26 32 -26 121 0 71 -1 76 -25 87 -40 18 -81 14 -110 -11z"/>
<path d="M5620 1314 c0 -3 7 -12 15 -20 22 -23 21 -171 -2 -196 -15 -17 -14
-18 37 -18 47 0 52 2 36 13 -16 12 -18 25 -14 86 3 66 7 76 32 98 25 22 30 23
50 10 18 -12 21 -25 24 -97 2 -69 0 -84 -15 -96 -16 -12 -12 -13 36 -14 52 0
53 1 38 18 -13 14 -17 38 -17 100 0 90 -17 122 -64 122 -13 0 -35 -9 -49 -20
-14 -11 -27 -20 -30 -20 -3 0 -7 9 -10 20 -4 15 -14 20 -36 20 -17 0 -31 -3
-31 -6z"/>
<path d="M5910 1313 c0 -4 8 -16 19 -27 20 -23 91 -193 91 -220 0 -25 -37 -93
-54 -99 -8 -3 -20 3 -28 14 -14 22 -48 18 -48 -6 0 -16 33 -45 51 -45 42 0 91
87 144 250 16 51 36 94 51 107 13 12 24 25 24 28 0 3 -22 5 -50 5 -48 0 -66
-12 -35 -24 8 -3 15 -14 15 -24 0 -22 -29 -113 -40 -125 -4 -5 -20 23 -35 62
-27 69 -28 72 -10 91 18 20 17 20 -38 20 -32 0 -57 -3 -57 -7z"/>
<path d="M6379 1305 c-53 -28 -77 -95 -55 -148 33 -81 119 -102 181 -44 103
95 -4 258 -126 192z m100 -31 c32 -40 29 -126 -4 -160 -33 -33 -63 -28 -93 16
-27 40 -26 102 2 145 23 34 68 34 95 -1z"/>
<path d="M7058 1304 c-36 -19 -58 -63 -58 -114 0 -53 29 -95 75 -110 30 -10
41 -9 72 7 20 10 39 24 41 32 4 11 -1 10 -19 -2 -46 -33 -99 -16 -119 38 -18
48 -8 55 75 55 81 0 86 4 63 55 -13 28 -55 55 -85 55 -10 -1 -30 -7 -45 -16z"/>
<path d="M7240 1312 c0 -4 10 -12 21 -17 12 -6 37 -31 55 -56 l34 -46 -30 -42
c-17 -23 -42 -46 -55 -51 -39 -15 -30 -20 33 -20 43 1 53 3 40 11 -23 13 -22
27 1 63 l19 28 25 -38 c24 -35 25 -38 9 -50 -15 -11 -8 -13 46 -14 35 0 62 4
62 10 0 6 -6 10 -14 10 -15 0 -64 54 -86 95 -11 21 -9 28 16 64 16 22 35 41
42 41 6 0 12 5 12 10 0 6 -16 10 -35 10 -32 0 -35 -2 -30 -23 4 -15 -1 -32
-13 -46 l-18 -24 -22 34 c-12 19 -17 36 -12 37 6 2 10 8 10 13 0 5 -25 9 -55
9 -30 0 -55 -3 -55 -8z"/>
<path d="M7530 1310 c0 -5 7 -10 15 -10 13 0 15 -24 15 -159 0 -151 -1 -161
-21 -174 -19 -14 -17 -15 35 -19 54 -3 72 4 41 16 -11 4 -15 21 -15 64 l0 59
50 -5 c46 -4 52 -2 85 31 29 29 35 42 35 76 0 48 -21 96 -49 111 -25 13 -78
13 -86 0 -10 -15 -35 -12 -35 5 0 10 -11 15 -35 15 -19 0 -35 -4 -35 -10z
m177 -47 c26 -39 24 -116 -4 -144 -26 -26 -72 -28 -90 -3 -25 34 -11 146 20
166 25 16 57 8 74 -19z"/>
<path d="M7868 1304 c-37 -19 -58 -63 -58 -117 0 -54 26 -91 75 -107 30 -10
41 -9 72 7 20 10 39 24 41 32 4 11 -1 10 -19 -2 -47 -34 -98 -16 -120 41 -17
45 -6 52 76 52 83 0 90 7 58 60 -28 48 -76 61 -125 34z"/>
<path d="M8055 1311 c-18 -7 -18 -8 -1 -18 15 -8 18 -24 19 -98 1 -75 -2 -89
-18 -101 -17 -13 -14 -14 33 -14 29 0 52 5 52 10 0 6 -4 10 -10 10 -6 0 -10
31 -10 73 0 61 4 77 21 96 l21 22 23 -21 c25 -24 45 -20 45 9 0 44 -48 54 -85
17 -24 -24 -24 -24 -27 -2 -3 23 -30 30 -63 17z"/>
<path d="M8633 1298 c-42 -44 -22 -82 66 -130 56 -31 32 -92 -29 -73 -11 4
-27 20 -35 36 -20 38 -25 37 -25 -8 l0 -38 59 -3 c54 -3 61 -1 80 24 40 51 19
95 -61 128 -41 16 -51 48 -22 64 26 15 53 2 72 -32 l17 -31 3 33 c2 19 1 36
-1 38 -2 3 -26 7 -53 10 -43 5 -52 3 -71 -18z"/>
<path d="M5556 981 c-17 -7 -16 -9 8 -24 l26 -17 0 -151 c0 -142 -1 -151 -20
-156 -41 -11 -18 -23 45 -23 63 0 86 12 45 23 -19 5 -20 14 -20 181 l0 176
-32 -1 c-18 0 -41 -4 -52 -8z"/>
<path d="M5792 904 c-7 -16 -27 -39 -45 -49 l-31 -19 27 -9 c28 -9 28 -9 21
-81 -6 -72 2 -110 30 -128 21 -14 64 -8 87 12 l24 20 -32 -6 c-52 -10 -63 7
-63 96 0 83 4 90 56 90 39 0 28 18 -13 22 -36 3 -38 5 -43 43 l-5 40 -13 -31z"/>
<path d="M6252 904 c-7 -16 -27 -39 -45 -49 l-31 -19 24 -8 c24 -8 25 -11 25
-99 0 -78 3 -93 19 -105 28 -20 70 -17 97 6 l24 21 -33 -6 c-52 -10 -62 5 -62
95 0 83 4 90 56 90 13 0 24 5 24 10 0 6 -18 10 -39 10 -40 0 -40 0 -43 43 l-3
42 -13 -31z"/>
<path d="M5070 853 c-30 -11 -50 -37 -50 -63 0 -31 20 -52 70 -72 19 -8 41
-22 48 -31 17 -20 7 -57 -16 -58 -36 -3 -48 3 -79 38 l-33 36 0 -40 c0 -36 3
-41 23 -41 12 -1 36 -4 53 -7 40 -9 92 17 100 49 10 43 -5 67 -61 92 -66 30
-82 48 -65 69 26 32 72 15 107 -41 11 -17 12 -14 10 20 -1 31 -6 40 -22 42
-11 2 -31 5 -45 8 -14 3 -32 2 -40 -1z"/>
<path d="M6635 849 c-70 -20 -114 -110 -83 -169 18 -34 75 -70 110 -70 69 0
138 63 138 124 0 80 -85 139 -165 115z m66 -19 c44 -24 62 -106 34 -159 -35
-69 -124 -46 -141 36 -8 40 11 99 39 118 25 18 41 19 68 5z"/>
<path d="M7368 845 c-28 -16 -45 -53 -35 -80 4 -8 33 -28 65 -44 64 -32 77
-50 58 -76 -21 -28 -77 -16 -101 22 -26 43 -35 41 -35 -6 0 -34 3 -39 23 -39
12 0 40 -3 62 -7 33 -6 45 -3 68 15 23 18 28 29 25 59 -3 33 -8 39 -65 69 -64
33 -82 63 -47 76 32 12 53 5 78 -26 l26 -33 0 35 c0 27 -4 36 -17 37 -10 0
-31 3 -48 7 -19 4 -40 0 -57 -9z"/>
<path d="M8616 849 c-68 -19 -109 -99 -83 -161 20 -47 50 -70 100 -75 36 -4
48 -1 75 22 18 15 32 34 32 42 0 10 -10 4 -29 -16 -35 -37 -60 -39 -97 -8 -22
19 -28 34 -32 78 -4 48 -1 59 20 84 20 23 30 27 52 21 15 -4 32 -18 38 -32 13
-27 41 -29 46 -2 6 33 -70 62 -122 47z"/>
<path d="M4693 832 c23 -26 25 -190 2 -198 -8 -4 -12 -10 -9 -15 7 -12 94 -11
94 1 0 6 -4 10 -9 10 -17 0 -23 59 -11 115 16 75 65 108 104 69 24 -23 23
-169 -1 -182 -12 -7 -2 -11 40 -13 55 -4 73 3 42 15 -12 4 -15 23 -15 81 0 73
-10 112 -34 127 -22 15 -83 8 -109 -12 -25 -20 -25 -20 -30 0 -4 15 -14 20
-43 20 -35 0 -36 -1 -21 -18z"/>
<path d="M5250 841 c0 -6 5 -13 10 -16 6 -3 10 -44 10 -91 0 -71 3 -87 20
-104 25 -25 56 -25 98 0 39 24 42 24 42 6 0 -18 22 -26 49 -19 15 4 19 9 12
17 -6 7 -12 57 -13 112 l-3 99 -40 3 c-36 2 -38 1 -22 -11 13 -11 17 -29 17
-79 0 -82 -25 -121 -74 -116 -27 3 -32 7 -38 43 -4 22 -7 68 -7 103 l-1 62
-30 0 c-16 0 -30 -4 -30 -9z"/>
<path d="M5962 830 c-26 -24 -27 -33 -7 -50 12 -10 18 -7 32 19 23 39 49 48
74 25 35 -31 20 -56 -47 -81 -43 -17 -65 -31 -73 -49 -15 -34 -14 -41 9 -64
24 -24 67 -26 99 -4 22 16 24 16 33 0 10 -18 54 -21 78 -6 13 8 13 10 -2 10
-27 0 -38 33 -38 116 0 91 -10 103 -86 104 -37 0 -56 -5 -72 -20z"/>
<path d="M6855 834 c17 -13 20 -26 20 -101 -1 -70 -4 -88 -18 -98 -10 -7 -15
-15 -10 -18 15 -9 92 -6 98 4 4 5 -1 9 -9 9 -22 0 -22 119 -1 160 17 32 59 49
84 33 36 -23 40 -165 4 -190 -14 -11 -7 -13 43 -13 45 1 55 3 42 11 -15 8 -18
25 -18 94 0 72 -3 88 -20 105 -26 26 -83 26 -121 -1 l-29 -20 0 20 c0 18 -6
21 -42 21 -41 -1 -42 -1 -23 -16z"/>
<path d="M7594 817 c-63 -58 -55 -155 18 -193 39 -20 110 -14 138 11 28 25 20
28 -24 10 -61 -26 -109 -1 -122 63 l-6 32 78 0 c94 0 109 7 95 42 -15 39 -58
68 -102 68 -30 0 -47 -8 -75 -33z"/>
<path d="M7810 840 c0 -5 6 -10 14 -10 20 0 26 -23 26 -100 0 -79 -6 -100 -28
-100 -24 0 -5 -13 25 -17 43 -5 78 6 64 20 -19 19 -14 141 7 168 19 22 29 22
64 -3 24 -18 48 5 32 30 -16 25 -53 27 -85 3 -35 -26 -39 -26 -39 -1 0 17 -7
20 -40 20 -22 0 -40 -4 -40 -10z"/>
<path d="M8060 841 c0 -5 7 -11 15 -14 8 -4 39 -55 69 -114 l54 -108 47 100
c25 55 58 110 73 122 l27 23 -49 0 c-39 0 -47 -3 -38 -12 7 -7 12 -20 12 -29
0 -18 -48 -129 -56 -129 -3 0 -20 32 -39 72 -32 66 -33 72 -17 84 15 12 9 13
-40 14 -32 0 -58 -4 -58 -9z"/>
<path d="M4560 290 l0 -230 2375 0 2375 0 0 230 0 230 -2375 0 -2375 0 0 -230z"/>
</g>
</svg>
